<?xml version='1.0' encoding='utf-8'?>
<mlt title="Anonymous Submission" version="6.5.0" root="/home/martin/Documents/ods stuff/ods/courseware/av" producer="main bin" LC_NUMERIC="en_CA.UTF-8">
 <profile width="1920" frame_rate_den="1" height="1080" display_aspect_num="16" display_aspect_den="9" frame_rate_num="30" colorspace="709" sample_aspect_den="1" description="HD 1080p 30 fps" progressive="1" sample_aspect_num="1"/>
 <producer id="1" title="Anonymous Submission" out="9830" in="0">
  <property name="length">00:05:27:21</property>
  <property name="eof">pause</property>
  <property name="resource">audio/skiplist-i.flac</property>
  <property name="meta.media.nb_streams">1</property>
  <property name="meta.media.0.stream.type">audio</property>
  <property name="meta.media.0.codec.sample_fmt">s16</property>
  <property name="meta.media.0.codec.sample_rate">44100</property>
  <property name="meta.media.0.codec.channels">1</property>
  <property name="meta.media.0.codec.name">flac</property>
  <property name="meta.media.0.codec.long_name">FLAC (Free Lossless Audio Codec)</property>
  <property name="meta.media.0.codec.bit_rate">0</property>
  <property name="seekable">1</property>
  <property name="audio_index">0</property>
  <property name="video_index">-1</property>
  <property name="mute_on_pause">1</property>
  <property name="mlt_service">avformat-novalidate</property>
  <property name="kdenlive:folderid">-1</property>
  <property name="kdenlive:file_size">10193012</property>
  <property name="kdenlive:file_hash">cd60a9eb561ce028264c2830577bf6b0</property>
  <property name="global_feed">1</property>
 </producer>
 <producer id="2" out="344" in="0">
  <property name="length">345</property>
  <property name="eof">pause</property>
  <property name="resource">skiplist-i-images/skiplist-i-01.png</property>
  <property name="ttl">25</property>
  <property name="aspect_ratio">1</property>
  <property name="progressive">1</property>
  <property name="seekable">1</property>
  <property name="loop">1</property>
  <property name="meta.media.width">1921</property>
  <property name="meta.media.height">1080</property>
  <property name="mlt_service">pixbuf</property>
  <property name="kdenlive:folderid">-1</property>
  <property name="kdenlive:duration">150</property>
  <property name="kdenlive:file_size">35468</property>
  <property name="kdenlive:file_hash">bfe3f1c8dab084df5c63f743d51cce69</property>
 </producer>
 <producer id="3" out="439" in="0">
  <property name="length">440</property>
  <property name="eof">pause</property>
  <property name="resource">skiplist-i-images/skiplist-i-02.png</property>
  <property name="ttl">25</property>
  <property name="aspect_ratio">1</property>
  <property name="progressive">1</property>
  <property name="seekable">1</property>
  <property name="loop">1</property>
  <property name="meta.media.width">1921</property>
  <property name="meta.media.height">1080</property>
  <property name="mlt_service">pixbuf</property>
  <property name="kdenlive:folderid">-1</property>
  <property name="kdenlive:duration">150</property>
  <property name="kdenlive:file_size">40022</property>
  <property name="kdenlive:file_hash">3aed78e5b158bae70db06d05838a3c33</property>
 </producer>
 <producer id="4" out="163" in="0">
  <property name="length">164</property>
  <property name="eof">pause</property>
  <property name="resource">skiplist-i-images/skiplist-i-03.png</property>
  <property name="ttl">25</property>
  <property name="aspect_ratio">1</property>
  <property name="progressive">1</property>
  <property name="seekable">1</property>
  <property name="loop">1</property>
  <property name="meta.media.width">1921</property>
  <property name="meta.media.height">1080</property>
  <property name="mlt_service">pixbuf</property>
  <property name="kdenlive:folderid">-1</property>
  <property name="kdenlive:duration">150</property>
  <property name="kdenlive:file_size">43395</property>
  <property name="kdenlive:file_hash">ec6a093e2e160f19cc296e0cd9873fc0</property>
 </producer>
 <producer id="5" out="149" in="0">
  <property name="length">150</property>
  <property name="eof">pause</property>
  <property name="resource">skiplist-i-images/skiplist-i-04.png</property>
  <property name="ttl">25</property>
  <property name="aspect_ratio">1</property>
  <property name="progressive">1</property>
  <property name="seekable">1</property>
  <property name="loop">1</property>
  <property name="meta.media.width">1921</property>
  <property name="meta.media.height">1080</property>
  <property name="mlt_service">pixbuf</property>
  <property name="kdenlive:folderid">-1</property>
  <property name="kdenlive:duration">150</property>
  <property name="kdenlive:file_size">44119</property>
  <property name="kdenlive:file_hash">e9fa9d730286d396e9c56b88c5933dc7</property>
 </producer>
 <producer id="6" out="271" in="0">
  <property name="length">272</property>
  <property name="eof">pause</property>
  <property name="resource">skiplist-i-images/skiplist-i-05.png</property>
  <property name="ttl">25</property>
  <property name="aspect_ratio">1</property>
  <property name="progressive">1</property>
  <property name="seekable">1</property>
  <property name="loop">1</property>
  <property name="meta.media.width">1921</property>
  <property name="meta.media.height">1080</property>
  <property name="mlt_service">pixbuf</property>
  <property name="kdenlive:folderid">-1</property>
  <property name="kdenlive:duration">150</property>
  <property name="kdenlive:file_size">44600</property>
  <property name="kdenlive:file_hash">aa0ee079f8bf3fffe8e5c7b1c9bda933</property>
 </producer>
 <producer id="7" out="188" in="0">
  <property name="length">189</property>
  <property name="eof">pause</property>
  <property name="resource">skiplist-i-images/skiplist-i-06.png</property>
  <property name="ttl">25</property>
  <property name="aspect_ratio">1</property>
  <property name="progressive">1</property>
  <property name="seekable">1</property>
  <property name="loop">1</property>
  <property name="meta.media.width">1921</property>
  <property name="meta.media.height">1080</property>
  <property name="mlt_service">pixbuf</property>
  <property name="kdenlive:folderid">-1</property>
  <property name="kdenlive:duration">150</property>
  <property name="kdenlive:file_size">155519</property>
  <property name="kdenlive:file_hash">3fb2871b721b61cc6362174e7da3a3a4</property>
 </producer>
 <producer id="8" out="149" in="0">
  <property name="length">150</property>
  <property name="eof">pause</property>
  <property name="resource">skiplist-i-images/skiplist-i-07.png</property>
  <property name="ttl">25</property>
  <property name="aspect_ratio">1</property>
  <property name="progressive">1</property>
  <property name="seekable">1</property>
  <property name="loop">1</property>
  <property name="meta.media.width">1921</property>
  <property name="meta.media.height">1080</property>
  <property name="mlt_service">pixbuf</property>
  <property name="kdenlive:folderid">-1</property>
  <property name="kdenlive:duration">150</property>
  <property name="kdenlive:file_size">155821</property>
  <property name="kdenlive:file_hash">8989c8b26883a268d7ccf058ce6ba81e</property>
 </producer>
 <producer id="9" out="149" in="0">
  <property name="length">150</property>
  <property name="eof">pause</property>
  <property name="resource">skiplist-i-images/skiplist-i-08.png</property>
  <property name="ttl">25</property>
  <property name="aspect_ratio">1</property>
  <property name="progressive">1</property>
  <property name="seekable">1</property>
  <property name="loop">1</property>
  <property name="meta.media.width">1921</property>
  <property name="meta.media.height">1080</property>
  <property name="mlt_service">pixbuf</property>
  <property name="kdenlive:folderid">-1</property>
  <property name="kdenlive:duration">150</property>
  <property name="kdenlive:file_size">44936</property>
  <property name="kdenlive:file_hash">f685151018e847a16fc1ca9cd331ac36</property>
 </producer>
 <producer id="10" out="149" in="0">
  <property name="length">150</property>
  <property name="eof">pause</property>
  <property name="resource">skiplist-i-images/skiplist-i-09.png</property>
  <property name="ttl">25</property>
  <property name="aspect_ratio">1</property>
  <property name="progressive">1</property>
  <property name="seekable">1</property>
  <property name="loop">1</property>
  <property name="meta.media.width">1921</property>
  <property name="meta.media.height">1080</property>
  <property name="mlt_service">pixbuf</property>
  <property name="kdenlive:folderid">-1</property>
  <property name="kdenlive:duration">150</property>
  <property name="kdenlive:file_size">44974</property>
  <property name="kdenlive:file_hash">b133bebde35bb53068f578a0a4f88be7</property>
 </producer>
 <producer id="11" out="149" in="0">
  <property name="length">150</property>
  <property name="eof">pause</property>
  <property name="resource">skiplist-i-images/skiplist-i-10.png</property>
  <property name="ttl">25</property>
  <property name="aspect_ratio">1</property>
  <property name="progressive">1</property>
  <property name="seekable">1</property>
  <property name="loop">1</property>
  <property name="meta.media.width">1921</property>
  <property name="meta.media.height">1080</property>
  <property name="mlt_service">pixbuf</property>
  <property name="kdenlive:folderid">-1</property>
  <property name="kdenlive:duration">150</property>
  <property name="kdenlive:file_size">158778</property>
  <property name="kdenlive:file_hash">75421996434844a165ce283648dc1567</property>
 </producer>
 <producer id="12" out="149" in="0">
  <property name="length">150</property>
  <property name="eof">pause</property>
  <property name="resource">skiplist-i-images/skiplist-i-11.png</property>
  <property name="ttl">25</property>
  <property name="aspect_ratio">1</property>
  <property name="progressive">1</property>
  <property name="seekable">1</property>
  <property name="loop">1</property>
  <property name="meta.media.width">1921</property>
  <property name="meta.media.height">1080</property>
  <property name="mlt_service">pixbuf</property>
  <property name="kdenlive:folderid">-1</property>
  <property name="kdenlive:duration">150</property>
  <property name="kdenlive:file_size">44974</property>
  <property name="kdenlive:file_hash">b133bebde35bb53068f578a0a4f88be7</property>
 </producer>
 <producer id="13" out="149" in="0">
  <property name="length">150</property>
  <property name="eof">pause</property>
  <property name="resource">skiplist-i-images/skiplist-i-12.png</property>
  <property name="ttl">25</property>
  <property name="aspect_ratio">1</property>
  <property name="progressive">1</property>
  <property name="seekable">1</property>
  <property name="loop">1</property>
  <property name="meta.media.width">1921</property>
  <property name="meta.media.height">1080</property>
  <property name="mlt_service">pixbuf</property>
  <property name="kdenlive:folderid">-1</property>
  <property name="kdenlive:duration">150</property>
  <property name="kdenlive:file_size">44987</property>
  <property name="kdenlive:file_hash">a4d4368313700239051c6ee464847ce1</property>
 </producer>
 <producer id="14" out="149" in="0">
  <property name="length">150</property>
  <property name="eof">pause</property>
  <property name="resource">skiplist-i-images/skiplist-i-13.png</property>
  <property name="ttl">25</property>
  <property name="aspect_ratio">1</property>
  <property name="progressive">1</property>
  <property name="seekable">1</property>
  <property name="loop">1</property>
  <property name="meta.media.width">1921</property>
  <property name="meta.media.height">1080</property>
  <property name="mlt_service">pixbuf</property>
  <property name="kdenlive:folderid">-1</property>
  <property name="kdenlive:duration">150</property>
  <property name="kdenlive:file_size">155868</property>
  <property name="kdenlive:file_hash">0a2439bb1ecfaef5c87cf6e20607b822</property>
 </producer>
 <producer id="15" out="149" in="0">
  <property name="length">150</property>
  <property name="eof">pause</property>
  <property name="resource">skiplist-i-images/skiplist-i-14.png</property>
  <property name="ttl">25</property>
  <property name="aspect_ratio">1</property>
  <property name="progressive">1</property>
  <property name="seekable">1</property>
  <property name="loop">1</property>
  <property name="meta.media.width">1921</property>
  <property name="meta.media.height">1080</property>
  <property name="mlt_service">pixbuf</property>
  <property name="kdenlive:folderid">-1</property>
  <property name="kdenlive:duration">150</property>
  <property name="kdenlive:file_size">156094</property>
  <property name="kdenlive:file_hash">8e0f4e6d591ed5cc36fdcc231d0a013d</property>
 </producer>
 <producer id="16" out="149" in="0">
  <property name="length">150</property>
  <property name="eof">pause</property>
  <property name="resource">skiplist-i-images/skiplist-i-15.png</property>
  <property name="ttl">25</property>
  <property name="aspect_ratio">1</property>
  <property name="progressive">1</property>
  <property name="seekable">1</property>
  <property name="loop">1</property>
  <property name="meta.media.width">1921</property>
  <property name="meta.media.height">1080</property>
  <property name="mlt_service">pixbuf</property>
  <property name="kdenlive:folderid">-1</property>
  <property name="kdenlive:duration">150</property>
  <property name="kdenlive:file_size">156276</property>
  <property name="kdenlive:file_hash">561c6c8c9659368a34723fcf75b98ace</property>
 </producer>
 <producer id="17" out="149" in="0">
  <property name="length">150</property>
  <property name="eof">pause</property>
  <property name="resource">skiplist-i-images/skiplist-i-16.png</property>
  <property name="ttl">25</property>
  <property name="aspect_ratio">1</property>
  <property name="progressive">1</property>
  <property name="seekable">1</property>
  <property name="loop">1</property>
  <property name="meta.media.width">1921</property>
  <property name="meta.media.height">1080</property>
  <property name="mlt_service">pixbuf</property>
  <property name="kdenlive:folderid">-1</property>
  <property name="kdenlive:duration">150</property>
  <property name="kdenlive:file_size">45412</property>
  <property name="kdenlive:file_hash">b1529edf6d67d97e60d8cf0a9d095c84</property>
 </producer>
 <producer id="18" out="149" in="0">
  <property name="length">150</property>
  <property name="eof">pause</property>
  <property name="resource">skiplist-i-images/skiplist-i-17.png</property>
  <property name="ttl">25</property>
  <property name="aspect_ratio">1</property>
  <property name="progressive">1</property>
  <property name="seekable">1</property>
  <property name="loop">1</property>
  <property name="meta.media.width">1921</property>
  <property name="meta.media.height">1080</property>
  <property name="mlt_service">pixbuf</property>
  <property name="kdenlive:folderid">-1</property>
  <property name="kdenlive:duration">150</property>
  <property name="kdenlive:file_size">45415</property>
  <property name="kdenlive:file_hash">3c02d25527d627574c31a866b3e160a5</property>
 </producer>
 <producer id="19" out="149" in="0">
  <property name="length">150</property>
  <property name="eof">pause</property>
  <property name="resource">skiplist-i-images/skiplist-i-18.png</property>
  <property name="ttl">25</property>
  <property name="aspect_ratio">1</property>
  <property name="progressive">1</property>
  <property name="seekable">1</property>
  <property name="loop">1</property>
  <property name="meta.media.width">1921</property>
  <property name="meta.media.height">1080</property>
  <property name="mlt_service">pixbuf</property>
  <property name="kdenlive:folderid">-1</property>
  <property name="kdenlive:duration">150</property>
  <property name="kdenlive:file_size">156600</property>
  <property name="kdenlive:file_hash">40e227f41a6940927710d67c66bab089</property>
 </producer>
 <producer id="20" out="149" in="0">
  <property name="length">150</property>
  <property name="eof">pause</property>
  <property name="resource">skiplist-i-images/skiplist-i-19.png</property>
  <property name="ttl">25</property>
  <property name="aspect_ratio">1</property>
  <property name="progressive">1</property>
  <property name="seekable">1</property>
  <property name="loop">1</property>
  <property name="meta.media.width">1921</property>
  <property name="meta.media.height">1080</property>
  <property name="mlt_service">pixbuf</property>
  <property name="kdenlive:folderid">-1</property>
  <property name="kdenlive:duration">150</property>
  <property name="kdenlive:file_size">45732</property>
  <property name="kdenlive:file_hash">f0ee5db08375a281ba938ec85fb269f2</property>
 </producer>
 <producer id="21" out="149" in="0">
  <property name="length">150</property>
  <property name="eof">pause</property>
  <property name="resource">skiplist-i-images/skiplist-i-20.png</property>
  <property name="ttl">25</property>
  <property name="aspect_ratio">1</property>
  <property name="progressive">1</property>
  <property name="seekable">1</property>
  <property name="loop">1</property>
  <property name="meta.media.width">1921</property>
  <property name="meta.media.height">1080</property>
  <property name="mlt_service">pixbuf</property>
  <property name="kdenlive:folderid">-1</property>
  <property name="kdenlive:duration">150</property>
  <property name="kdenlive:file_size">156779</property>
  <property name="kdenlive:file_hash">6382af8a82e0449bbf006333d445bd75</property>
 </producer>
 <producer id="22" out="149" in="0">
  <property name="length">150</property>
  <property name="eof">pause</property>
  <property name="resource">skiplist-i-images/skiplist-i-21.png</property>
  <property name="ttl">25</property>
  <property name="aspect_ratio">1</property>
  <property name="progressive">1</property>
  <property name="seekable">1</property>
  <property name="loop">1</property>
  <property name="meta.media.width">1921</property>
  <property name="meta.media.height">1080</property>
  <property name="mlt_service">pixbuf</property>
  <property name="kdenlive:folderid">-1</property>
  <property name="kdenlive:duration">150</property>
  <property name="kdenlive:file_size">45979</property>
  <property name="kdenlive:file_hash">7ee2fe25570879205ea71c4cba5f0030</property>
 </producer>
 <producer id="23" out="149" in="0">
  <property name="length">150</property>
  <property name="eof">pause</property>
  <property name="resource">skiplist-i-images/skiplist-i-22.png</property>
  <property name="ttl">25</property>
  <property name="aspect_ratio">1</property>
  <property name="progressive">1</property>
  <property name="seekable">1</property>
  <property name="loop">1</property>
  <property name="meta.media.width">1921</property>
  <property name="meta.media.height">1080</property>
  <property name="mlt_service">pixbuf</property>
  <property name="kdenlive:folderid">-1</property>
  <property name="kdenlive:duration">150</property>
  <property name="kdenlive:file_size">159818</property>
  <property name="kdenlive:file_hash">b4e8d6187e2b5d0bf0bc4c65e085518d</property>
 </producer>
 <producer id="24" out="149" in="0">
  <property name="length">150</property>
  <property name="eof">pause</property>
  <property name="resource">skiplist-i-images/skiplist-i-23.png</property>
  <property name="ttl">25</property>
  <property name="aspect_ratio">1</property>
  <property name="progressive">1</property>
  <property name="seekable">1</property>
  <property name="loop">1</property>
  <property name="meta.media.width">1921</property>
  <property name="meta.media.height">1080</property>
  <property name="mlt_service">pixbuf</property>
  <property name="kdenlive:folderid">-1</property>
  <property name="kdenlive:duration">150</property>
  <property name="kdenlive:file_size">45962</property>
  <property name="kdenlive:file_hash">a221d0701c1fb64b2a4758f920cde736</property>
 </producer>
 <producer id="25" out="149" in="0">
  <property name="length">150</property>
  <property name="eof">pause</property>
  <property name="resource">skiplist-i-images/skiplist-i-24.png</property>
  <property name="ttl">25</property>
  <property name="aspect_ratio">1</property>
  <property name="progressive">1</property>
  <property name="seekable">1</property>
  <property name="loop">1</property>
  <property name="meta.media.width">1921</property>
  <property name="meta.media.height">1080</property>
  <property name="mlt_service">pixbuf</property>
  <property name="kdenlive:folderid">-1</property>
  <property name="kdenlive:duration">150</property>
  <property name="kdenlive:file_size">157065</property>
  <property name="kdenlive:file_hash">f52ca276778bac3aae5cb5e7446fd00c</property>
 </producer>
 <producer id="26" out="149" in="0">
  <property name="length">150</property>
  <property name="eof">pause</property>
  <property name="resource">skiplist-i-images/skiplist-i-25.png</property>
  <property name="ttl">25</property>
  <property name="aspect_ratio">1</property>
  <property name="progressive">1</property>
  <property name="seekable">1</property>
  <property name="loop">1</property>
  <property name="meta.media.width">1921</property>
  <property name="meta.media.height">1080</property>
  <property name="mlt_service">pixbuf</property>
  <property name="kdenlive:folderid">-1</property>
  <property name="kdenlive:duration">150</property>
  <property name="kdenlive:file_size">46282</property>
  <property name="kdenlive:file_hash">aaeaf1bbfb6f7205146e573904b6436c</property>
 </producer>
 <producer id="27" out="149" in="0">
  <property name="length">150</property>
  <property name="eof">pause</property>
  <property name="resource">skiplist-i-images/skiplist-i-26.png</property>
  <property name="ttl">25</property>
  <property name="aspect_ratio">1</property>
  <property name="progressive">1</property>
  <property name="seekable">1</property>
  <property name="loop">1</property>
  <property name="meta.media.width">1921</property>
  <property name="meta.media.height">1080</property>
  <property name="mlt_service">pixbuf</property>
  <property name="kdenlive:folderid">-1</property>
  <property name="kdenlive:duration">150</property>
  <property name="kdenlive:file_size">160122</property>
  <property name="kdenlive:file_hash">5cbcd7c9dbc95f7f96cb34b0e9b5c7a9</property>
 </producer>
 <producer id="28" out="149" in="0">
  <property name="length">150</property>
  <property name="eof">pause</property>
  <property name="resource">skiplist-i-images/skiplist-i-27.png</property>
  <property name="ttl">25</property>
  <property name="aspect_ratio">1</property>
  <property name="progressive">1</property>
  <property name="seekable">1</property>
  <property name="loop">1</property>
  <property name="meta.media.width">1921</property>
  <property name="meta.media.height">1080</property>
  <property name="mlt_service">pixbuf</property>
  <property name="kdenlive:folderid">-1</property>
  <property name="kdenlive:duration">150</property>
  <property name="kdenlive:file_size">46264</property>
  <property name="kdenlive:file_hash">2e8b80d024578df335e3582e3d763f5d</property>
 </producer>
 <producer id="29" out="149" in="0">
  <property name="length">150</property>
  <property name="eof">pause</property>
  <property name="resource">skiplist-i-images/skiplist-i-28.png</property>
  <property name="ttl">25</property>
  <property name="aspect_ratio">1</property>
  <property name="progressive">1</property>
  <property name="seekable">1</property>
  <property name="loop">1</property>
  <property name="meta.media.width">1921</property>
  <property name="meta.media.height">1080</property>
  <property name="mlt_service">pixbuf</property>
  <property name="kdenlive:folderid">-1</property>
  <property name="kdenlive:duration">150</property>
  <property name="kdenlive:file_size">157321</property>
  <property name="kdenlive:file_hash">13d973b3d84f50875b0be5718e6e1027</property>
 </producer>
 <producer id="30" out="149" in="0">
  <property name="length">150</property>
  <property name="eof">pause</property>
  <property name="resource">skiplist-i-images/skiplist-i-29.png</property>
  <property name="ttl">25</property>
  <property name="aspect_ratio">1</property>
  <property name="progressive">1</property>
  <property name="seekable">1</property>
  <property name="loop">1</property>
  <property name="meta.media.width">1921</property>
  <property name="meta.media.height">1080</property>
  <property name="mlt_service">pixbuf</property>
  <property name="kdenlive:folderid">-1</property>
  <property name="kdenlive:duration">150</property>
  <property name="kdenlive:file_size">46424</property>
  <property name="kdenlive:file_hash">2198bdaf899177eb327899078a27da63</property>
 </producer>
 <producer id="31" out="149" in="0">
  <property name="length">150</property>
  <property name="eof">pause</property>
  <property name="resource">skiplist-i-images/skiplist-i-30.png</property>
  <property name="ttl">25</property>
  <property name="aspect_ratio">1</property>
  <property name="progressive">1</property>
  <property name="seekable">1</property>
  <property name="loop">1</property>
  <property name="meta.media.width">1921</property>
  <property name="meta.media.height">1080</property>
  <property name="mlt_service">pixbuf</property>
  <property name="kdenlive:folderid">-1</property>
  <property name="kdenlive:duration">150</property>
  <property name="kdenlive:file_size">160263</property>
  <property name="kdenlive:file_hash">ff8753da9390b4107c625604deb9f58a</property>
 </producer>
 <producer id="32" out="149" in="0">
  <property name="length">150</property>
  <property name="eof">pause</property>
  <property name="resource">skiplist-i-images/skiplist-i-31.png</property>
  <property name="ttl">25</property>
  <property name="aspect_ratio">1</property>
  <property name="progressive">1</property>
  <property name="seekable">1</property>
  <property name="loop">1</property>
  <property name="meta.media.width">1921</property>
  <property name="meta.media.height">1080</property>
  <property name="mlt_service">pixbuf</property>
  <property name="kdenlive:folderid">-1</property>
  <property name="kdenlive:duration">150</property>
  <property name="kdenlive:file_size">45962</property>
  <property name="kdenlive:file_hash">50ac9519c3e2fefb0f0a323d5d7826f4</property>
 </producer>
 <producer id="33" out="207" in="0">
  <property name="length">208</property>
  <property name="eof">pause</property>
  <property name="resource">skiplist-i-images/skiplist-i-32.png</property>
  <property name="ttl">25</property>
  <property name="aspect_ratio">1</property>
  <property name="progressive">1</property>
  <property name="seekable">1</property>
  <property name="loop">1</property>
  <property name="meta.media.width">1921</property>
  <property name="meta.media.height">1080</property>
  <property name="mlt_service">pixbuf</property>
  <property name="kdenlive:folderid">-1</property>
  <property name="kdenlive:duration">150</property>
  <property name="kdenlive:file_size">46118</property>
  <property name="kdenlive:file_hash">ea57d119666c877926e9c4cb68ff8db4</property>
 </producer>
 <producer id="34" out="155" in="0">
  <property name="length">156</property>
  <property name="eof">pause</property>
  <property name="resource">skiplist-i-images/skiplist-i-33.png</property>
  <property name="ttl">25</property>
  <property name="aspect_ratio">1</property>
  <property name="progressive">1</property>
  <property name="seekable">1</property>
  <property name="loop">1</property>
  <property name="meta.media.width">1921</property>
  <property name="meta.media.height">1080</property>
  <property name="mlt_service">pixbuf</property>
  <property name="kdenlive:folderid">-1</property>
  <property name="kdenlive:duration">150</property>
  <property name="kdenlive:file_size">46681</property>
  <property name="kdenlive:file_hash">6c37010f7fab2f1b23302a9156490125</property>
 </producer>
 <producer id="35" out="149" in="0">
  <property name="length">150</property>
  <property name="eof">pause</property>
  <property name="resource">skiplist-i-images/skiplist-i-34.png</property>
  <property name="ttl">25</property>
  <property name="aspect_ratio">1</property>
  <property name="progressive">1</property>
  <property name="seekable">1</property>
  <property name="loop">1</property>
  <property name="meta.media.width">1921</property>
  <property name="meta.media.height">1080</property>
  <property name="mlt_service">pixbuf</property>
  <property name="kdenlive:folderid">-1</property>
  <property name="kdenlive:duration">150</property>
  <property name="kdenlive:file_size">47152</property>
  <property name="kdenlive:file_hash">f6680b80f693289018d2511c1f496e36</property>
 </producer>
 <producer id="36" out="149" in="0">
  <property name="length">150</property>
  <property name="eof">pause</property>
  <property name="resource">skiplist-i-images/skiplist-i-35.png</property>
  <property name="ttl">25</property>
  <property name="aspect_ratio">1</property>
  <property name="progressive">1</property>
  <property name="seekable">1</property>
  <property name="loop">1</property>
  <property name="meta.media.width">1921</property>
  <property name="meta.media.height">1080</property>
  <property name="mlt_service">pixbuf</property>
  <property name="kdenlive:folderid">-1</property>
  <property name="kdenlive:duration">150</property>
  <property name="kdenlive:file_size">158339</property>
  <property name="kdenlive:file_hash">7d357049eb2fd2c4e0f1da11b3b84868</property>
 </producer>
 <producer id="37" out="149" in="0">
  <property name="length">150</property>
  <property name="eof">pause</property>
  <property name="resource">skiplist-i-images/skiplist-i-36.png</property>
  <property name="ttl">25</property>
  <property name="aspect_ratio">1</property>
  <property name="progressive">1</property>
  <property name="seekable">1</property>
  <property name="loop">1</property>
  <property name="meta.media.width">1921</property>
  <property name="meta.media.height">1080</property>
  <property name="mlt_service">pixbuf</property>
  <property name="kdenlive:folderid">-1</property>
  <property name="kdenlive:duration">150</property>
  <property name="kdenlive:file_size">47290</property>
  <property name="kdenlive:file_hash">0e3cfdd70e0d4b9dc01a439c92157ece</property>
 </producer>
 <producer id="38" out="149" in="0">
  <property name="length">150</property>
  <property name="eof">pause</property>
  <property name="resource">skiplist-i-images/skiplist-i-37.png</property>
  <property name="ttl">25</property>
  <property name="aspect_ratio">1</property>
  <property name="progressive">1</property>
  <property name="seekable">1</property>
  <property name="loop">1</property>
  <property name="meta.media.width">1921</property>
  <property name="meta.media.height">1080</property>
  <property name="mlt_service">pixbuf</property>
  <property name="kdenlive:folderid">-1</property>
  <property name="kdenlive:duration">150</property>
  <property name="kdenlive:file_size">161132</property>
  <property name="kdenlive:file_hash">2b0e26b480c8d85ffca636e52abe1a7e</property>
 </producer>
 <producer id="39" out="149" in="0">
  <property name="length">150</property>
  <property name="eof">pause</property>
  <property name="resource">skiplist-i-images/skiplist-i-38.png</property>
  <property name="ttl">25</property>
  <property name="aspect_ratio">1</property>
  <property name="progressive">1</property>
  <property name="seekable">1</property>
  <property name="loop">1</property>
  <property name="meta.media.width">1921</property>
  <property name="meta.media.height">1080</property>
  <property name="mlt_service">pixbuf</property>
  <property name="kdenlive:folderid">-1</property>
  <property name="kdenlive:duration">150</property>
  <property name="kdenlive:file_size">47291</property>
  <property name="kdenlive:file_hash">fec40a38992a2386e10038a3753d8a2e</property>
 </producer>
 <producer id="40" out="149" in="0">
  <property name="length">150</property>
  <property name="eof">pause</property>
  <property name="resource">skiplist-i-images/skiplist-i-39.png</property>
  <property name="ttl">25</property>
  <property name="aspect_ratio">1</property>
  <property name="progressive">1</property>
  <property name="seekable">1</property>
  <property name="loop">1</property>
  <property name="meta.media.width">1921</property>
  <property name="meta.media.height">1080</property>
  <property name="mlt_service">pixbuf</property>
  <property name="kdenlive:folderid">-1</property>
  <property name="kdenlive:duration">150</property>
  <property name="kdenlive:file_size">161130</property>
  <property name="kdenlive:file_hash">f807be215a94291e34087cb0ba706859</property>
 </producer>
 <producer id="41" out="149" in="0">
  <property name="length">150</property>
  <property name="eof">pause</property>
  <property name="resource">skiplist-i-images/skiplist-i-40.png</property>
  <property name="ttl">25</property>
  <property name="aspect_ratio">1</property>
  <property name="progressive">1</property>
  <property name="seekable">1</property>
  <property name="loop">1</property>
  <property name="meta.media.width">1921</property>
  <property name="meta.media.height">1080</property>
  <property name="mlt_service">pixbuf</property>
  <property name="kdenlive:folderid">-1</property>
  <property name="kdenlive:duration">150</property>
  <property name="kdenlive:file_size">47297</property>
  <property name="kdenlive:file_hash">5c7d719ba20778fa33de22443a40cf55</property>
 </producer>
 <producer id="42" out="149" in="0">
  <property name="length">150</property>
  <property name="eof">pause</property>
  <property name="resource">skiplist-i-images/skiplist-i-41.png</property>
  <property name="ttl">25</property>
  <property name="aspect_ratio">1</property>
  <property name="progressive">1</property>
  <property name="seekable">1</property>
  <property name="loop">1</property>
  <property name="meta.media.width">1921</property>
  <property name="meta.media.height">1080</property>
  <property name="mlt_service">pixbuf</property>
  <property name="kdenlive:folderid">-1</property>
  <property name="kdenlive:duration">150</property>
  <property name="kdenlive:file_size">161137</property>
  <property name="kdenlive:file_hash">da696bad6c68f6f6041a710dceb4c2ec</property>
 </producer>
 <producer id="43" out="149" in="0">
  <property name="length">150</property>
  <property name="eof">pause</property>
  <property name="resource">skiplist-i-images/skiplist-i-42.png</property>
  <property name="ttl">25</property>
  <property name="aspect_ratio">1</property>
  <property name="progressive">1</property>
  <property name="seekable">1</property>
  <property name="loop">1</property>
  <property name="meta.media.width">1921</property>
  <property name="meta.media.height">1080</property>
  <property name="mlt_service">pixbuf</property>
  <property name="kdenlive:folderid">-1</property>
  <property name="kdenlive:duration">150</property>
  <property name="kdenlive:file_size">47270</property>
  <property name="kdenlive:file_hash">6374770372f8dab2d360314204f838a8</property>
 </producer>
 <producer id="44" out="149" in="0">
  <property name="length">150</property>
  <property name="eof">pause</property>
  <property name="resource">skiplist-i-images/skiplist-i-43.png</property>
  <property name="ttl">25</property>
  <property name="aspect_ratio">1</property>
  <property name="progressive">1</property>
  <property name="seekable">1</property>
  <property name="loop">1</property>
  <property name="meta.media.width">1921</property>
  <property name="meta.media.height">1080</property>
  <property name="mlt_service">pixbuf</property>
  <property name="kdenlive:folderid">-1</property>
  <property name="kdenlive:duration">150</property>
  <property name="kdenlive:file_size">158585</property>
  <property name="kdenlive:file_hash">3593c7e4a0540e81aac2f73b9e5c81c1</property>
 </producer>
 <producer id="45" out="149" in="0">
  <property name="length">150</property>
  <property name="eof">pause</property>
  <property name="resource">skiplist-i-images/skiplist-i-44.png</property>
  <property name="ttl">25</property>
  <property name="aspect_ratio">1</property>
  <property name="progressive">1</property>
  <property name="seekable">1</property>
  <property name="loop">1</property>
  <property name="meta.media.width">1921</property>
  <property name="meta.media.height">1080</property>
  <property name="mlt_service">pixbuf</property>
  <property name="kdenlive:folderid">-1</property>
  <property name="kdenlive:duration">150</property>
  <property name="kdenlive:file_size">47771</property>
  <property name="kdenlive:file_hash">fb120f3e77efd40d4b9cd5c20c2d8a0a</property>
 </producer>
 <producer id="46" out="149" in="0">
  <property name="length">150</property>
  <property name="eof">pause</property>
  <property name="resource">skiplist-i-images/skiplist-i-45.png</property>
  <property name="ttl">25</property>
  <property name="aspect_ratio">1</property>
  <property name="progressive">1</property>
  <property name="seekable">1</property>
  <property name="loop">1</property>
  <property name="meta.media.width">1921</property>
  <property name="meta.media.height">1080</property>
  <property name="mlt_service">pixbuf</property>
  <property name="kdenlive:folderid">-1</property>
  <property name="kdenlive:duration">150</property>
  <property name="kdenlive:file_size">159011</property>
  <property name="kdenlive:file_hash">f79e14e4cdc865088694589bf97652a3</property>
 </producer>
 <producer id="47" out="149" in="0">
  <property name="length">150</property>
  <property name="eof">pause</property>
  <property name="resource">skiplist-i-images/skiplist-i-46.png</property>
  <property name="ttl">25</property>
  <property name="aspect_ratio">1</property>
  <property name="progressive">1</property>
  <property name="seekable">1</property>
  <property name="loop">1</property>
  <property name="meta.media.width">1921</property>
  <property name="meta.media.height">1080</property>
  <property name="mlt_service">pixbuf</property>
  <property name="kdenlive:folderid">-1</property>
  <property name="kdenlive:duration">150</property>
  <property name="kdenlive:file_size">47882</property>
  <property name="kdenlive:file_hash">6fea7cfe296559b759a4d9cec408e586</property>
 </producer>
 <producer id="48" out="149" in="0">
  <property name="length">150</property>
  <property name="eof">pause</property>
  <property name="resource">skiplist-i-images/skiplist-i-47.png</property>
  <property name="ttl">25</property>
  <property name="aspect_ratio">1</property>
  <property name="progressive">1</property>
  <property name="seekable">1</property>
  <property name="loop">1</property>
  <property name="meta.media.width">1921</property>
  <property name="meta.media.height">1080</property>
  <property name="mlt_service">pixbuf</property>
  <property name="kdenlive:folderid">-1</property>
  <property name="kdenlive:duration">150</property>
  <property name="kdenlive:file_size">48267</property>
  <property name="kdenlive:file_hash">cc5484a42d7c8f9a0341bd479681fb55</property>
 </producer>
 <producer id="49" out="149" in="0">
  <property name="length">150</property>
  <property name="eof">pause</property>
  <property name="resource">skiplist-i-images/skiplist-i-48.png</property>
  <property name="ttl">25</property>
  <property name="aspect_ratio">1</property>
  <property name="progressive">1</property>
  <property name="seekable">1</property>
  <property name="loop">1</property>
  <property name="meta.media.width">1921</property>
  <property name="meta.media.height">1080</property>
  <property name="mlt_service">pixbuf</property>
  <property name="kdenlive:folderid">-1</property>
  <property name="kdenlive:duration">150</property>
  <property name="kdenlive:file_size">49049</property>
  <property name="kdenlive:file_hash">28a067769b25ff68ffdc61f113f41dc1</property>
 </producer>
 <producer id="50" out="149" in="0">
  <property name="length">150</property>
  <property name="eof">pause</property>
  <property name="resource">skiplist-i-images/skiplist-i-49.png</property>
  <property name="ttl">25</property>
  <property name="aspect_ratio">1</property>
  <property name="progressive">1</property>
  <property name="seekable">1</property>
  <property name="loop">1</property>
  <property name="meta.media.width">1921</property>
  <property name="meta.media.height">1080</property>
  <property name="mlt_service">pixbuf</property>
  <property name="kdenlive:folderid">-1</property>
  <property name="kdenlive:duration">150</property>
  <property name="kdenlive:file_size">51072</property>
  <property name="kdenlive:file_hash">1a215fc6f9a8a8a71f0e15775313067b</property>
 </producer>
 <producer id="51" out="900" in="0">
  <property name="length">901</property>
  <property name="eof">pause</property>
  <property name="resource">skiplist-i-images/skiplist-i-50.png</property>
  <property name="ttl">25</property>
  <property name="aspect_ratio">1</property>
  <property name="progressive">1</property>
  <property name="seekable">1</property>
  <property name="loop">1</property>
  <property name="meta.media.width">1921</property>
  <property name="meta.media.height">1080</property>
  <property name="mlt_service">pixbuf</property>
  <property name="kdenlive:folderid">-1</property>
  <property name="kdenlive:duration">150</property>
  <property name="kdenlive:file_size">52426</property>
  <property name="kdenlive:file_hash">c2d18e71e9f784e9ccf5bfd81fe13d93</property>
 </producer>
 <producer id="52" out="197" in="0">
  <property name="length">198</property>
  <property name="eof">pause</property>
  <property name="resource">skiplist-i-images/skiplist-i-51.png</property>
  <property name="ttl">25</property>
  <property name="aspect_ratio">1</property>
  <property name="progressive">1</property>
  <property name="seekable">1</property>
  <property name="loop">1</property>
  <property name="meta.media.width">1921</property>
  <property name="meta.media.height">1080</property>
  <property name="mlt_service">pixbuf</property>
  <property name="kdenlive:folderid">-1</property>
  <property name="kdenlive:duration">150</property>
  <property name="kdenlive:file_size">53341</property>
  <property name="kdenlive:file_hash">899251afd790d7c78c7f066461f79a1e</property>
 </producer>
 <producer id="53" out="159" in="0">
  <property name="length">160</property>
  <property name="eof">pause</property>
  <property name="resource">skiplist-i-images/skiplist-i-52.png</property>
  <property name="ttl">25</property>
  <property name="aspect_ratio">1</property>
  <property name="progressive">1</property>
  <property name="seekable">1</property>
  <property name="loop">1</property>
  <property name="meta.media.width">1921</property>
  <property name="meta.media.height">1080</property>
  <property name="mlt_service">pixbuf</property>
  <property name="kdenlive:folderid">-1</property>
  <property name="kdenlive:duration">150</property>
  <property name="kdenlive:file_size">54390</property>
  <property name="kdenlive:file_hash">69d5e1aba90e98d034a3676965f6d889</property>
 </producer>
 <producer id="54" out="195" in="0">
  <property name="length">196</property>
  <property name="eof">pause</property>
  <property name="resource">skiplist-i-images/skiplist-i-53.png</property>
  <property name="ttl">25</property>
  <property name="aspect_ratio">1</property>
  <property name="progressive">1</property>
  <property name="seekable">1</property>
  <property name="loop">1</property>
  <property name="meta.media.width">1921</property>
  <property name="meta.media.height">1080</property>
  <property name="mlt_service">pixbuf</property>
  <property name="kdenlive:folderid">-1</property>
  <property name="kdenlive:duration">150</property>
  <property name="kdenlive:file_size">54548</property>
  <property name="kdenlive:file_hash">04f9670f01a55312f6a4f0e9475fd396</property>
 </producer>
 <producer id="55" out="262" in="0">
  <property name="length">263</property>
  <property name="eof">pause</property>
  <property name="resource">skiplist-i-images/skiplist-i-54.png</property>
  <property name="ttl">25</property>
  <property name="aspect_ratio">1</property>
  <property name="progressive">1</property>
  <property name="seekable">1</property>
  <property name="loop">1</property>
  <property name="meta.media.width">1921</property>
  <property name="meta.media.height">1080</property>
  <property name="mlt_service">pixbuf</property>
  <property name="kdenlive:folderid">-1</property>
  <property name="kdenlive:duration">150</property>
  <property name="kdenlive:file_size">54915</property>
  <property name="kdenlive:file_hash">9d6fd5e1eff95b7da593739f4e484ba6</property>
 </producer>
 <producer id="56" out="149" in="0">
  <property name="length">150</property>
  <property name="eof">pause</property>
  <property name="resource">skiplist-i-images/skiplist-i-55.png</property>
  <property name="ttl">25</property>
  <property name="aspect_ratio">1</property>
  <property name="progressive">1</property>
  <property name="seekable">1</property>
  <property name="loop">1</property>
  <property name="meta.media.width">1921</property>
  <property name="meta.media.height">1080</property>
  <property name="mlt_service">pixbuf</property>
  <property name="kdenlive:folderid">-1</property>
  <property name="kdenlive:duration">150</property>
  <property name="kdenlive:file_size">55443</property>
  <property name="kdenlive:file_hash">b41340d3f17e06c5227570420dd7da48</property>
 </producer>
 <producer id="57" out="271" in="0">
  <property name="length">272</property>
  <property name="eof">pause</property>
  <property name="resource">skiplist-i-images/skiplist-i-56.png</property>
  <property name="ttl">25</property>
  <property name="aspect_ratio">1</property>
  <property name="progressive">1</property>
  <property name="seekable">1</property>
  <property name="loop">1</property>
  <property name="meta.media.width">1921</property>
  <property name="meta.media.height">1080</property>
  <property name="mlt_service">pixbuf</property>
  <property name="kdenlive:folderid">-1</property>
  <property name="kdenlive:duration">150</property>
  <property name="kdenlive:file_size">57058</property>
  <property name="kdenlive:file_hash">6b5ab3aeda4c84edff521ec4829bd8ed</property>
 </producer>
 <producer id="58" out="149" in="0">
  <property name="length">150</property>
  <property name="eof">pause</property>
  <property name="resource">skiplist-i-images/skiplist-i-57.png</property>
  <property name="ttl">25</property>
  <property name="aspect_ratio">1</property>
  <property name="progressive">1</property>
  <property name="seekable">1</property>
  <property name="loop">1</property>
  <property name="meta.media.width">1921</property>
  <property name="meta.media.height">1080</property>
  <property name="mlt_service">pixbuf</property>
  <property name="kdenlive:folderid">-1</property>
  <property name="kdenlive:duration">150</property>
  <property name="kdenlive:file_size">55511</property>
  <property name="kdenlive:file_hash">2b241cf5165cef06b3ffcfc3a8c446f9</property>
 </producer>
 <producer id="59" out="343" in="0">
  <property name="length">344</property>
  <property name="eof">pause</property>
  <property name="resource">skiplist-i-images/skiplist-i-58.png</property>
  <property name="ttl">25</property>
  <property name="aspect_ratio">1</property>
  <property name="progressive">1</property>
  <property name="seekable">1</property>
  <property name="loop">1</property>
  <property name="meta.media.width">1921</property>
  <property name="meta.media.height">1080</property>
  <property name="mlt_service">pixbuf</property>
  <property name="kdenlive:folderid">-1</property>
  <property name="kdenlive:duration">150</property>
  <property name="kdenlive:file_size">56797</property>
  <property name="kdenlive:file_hash">d2302da120390ca46464ebf51f4ec5e9</property>
 </producer>
 <producer id="60" out="149" in="0">
  <property name="length">150</property>
  <property name="eof">pause</property>
  <property name="resource">skiplist-i-images/skiplist-i-59.png</property>
  <property name="ttl">25</property>
  <property name="aspect_ratio">1</property>
  <property name="progressive">1</property>
  <property name="seekable">1</property>
  <property name="loop">1</property>
  <property name="meta.media.width">1921</property>
  <property name="meta.media.height">1080</property>
  <property name="mlt_service">pixbuf</property>
  <property name="kdenlive:folderid">-1</property>
  <property name="kdenlive:duration">150</property>
  <property name="kdenlive:file_size">56188</property>
  <property name="kdenlive:file_hash">8de79be437f99817f0136723918e1685</property>
 </producer>
 <producer id="61" out="189" in="0">
  <property name="length">190</property>
  <property name="eof">pause</property>
  <property name="resource">skiplist-i-images/skiplist-i-60.png</property>
  <property name="ttl">25</property>
  <property name="aspect_ratio">1</property>
  <property name="progressive">1</property>
  <property name="seekable">1</property>
  <property name="loop">1</property>
  <property name="meta.media.width">1921</property>
  <property name="meta.media.height">1080</property>
  <property name="mlt_service">pixbuf</property>
  <property name="kdenlive:folderid">-1</property>
  <property name="kdenlive:duration">150</property>
  <property name="kdenlive:file_size">57761</property>
  <property name="kdenlive:file_hash">44255f3c9fae54f4d2b03e65a517c5fc</property>
 </producer>
 <producer id="62" out="149" in="0">
  <property name="length">150</property>
  <property name="eof">pause</property>
  <property name="resource">skiplist-i-images/skiplist-i-61.png</property>
  <property name="ttl">25</property>
  <property name="aspect_ratio">1</property>
  <property name="progressive">1</property>
  <property name="seekable">1</property>
  <property name="loop">1</property>
  <property name="meta.media.width">1921</property>
  <property name="meta.media.height">1080</property>
  <property name="mlt_service">pixbuf</property>
  <property name="kdenlive:folderid">-1</property>
  <property name="kdenlive:duration">150</property>
  <property name="kdenlive:file_size">55879</property>
  <property name="kdenlive:file_hash">98180a2a51ba07b8841889c16a29edf6</property>
 </producer>
 <producer id="63" out="176" in="0">
  <property name="length">177</property>
  <property name="eof">pause</property>
  <property name="resource">skiplist-i-images/skiplist-i-62.png</property>
  <property name="ttl">25</property>
  <property name="aspect_ratio">1</property>
  <property name="progressive">1</property>
  <property name="seekable">1</property>
  <property name="loop">1</property>
  <property name="meta.media.width">1921</property>
  <property name="meta.media.height">1080</property>
  <property name="mlt_service">pixbuf</property>
  <property name="kdenlive:folderid">-1</property>
  <property name="kdenlive:duration">150</property>
  <property name="kdenlive:file_size">57014</property>
  <property name="kdenlive:file_hash">85a87c5410f0f46b8f7f8b44f7276008</property>
 </producer>
 <producer id="64" out="149" in="0">
  <property name="length">150</property>
  <property name="eof">pause</property>
  <property name="resource">skiplist-i-images/skiplist-i-63.png</property>
  <property name="ttl">25</property>
  <property name="aspect_ratio">1</property>
  <property name="progressive">1</property>
  <property name="seekable">1</property>
  <property name="loop">1</property>
  <property name="meta.media.width">1921</property>
  <property name="meta.media.height">1080</property>
  <property name="mlt_service">pixbuf</property>
  <property name="kdenlive:folderid">-1</property>
  <property name="kdenlive:duration">150</property>
  <property name="kdenlive:file_size">56554</property>
  <property name="kdenlive:file_hash">61cfd0c58deb7be9e3008f3fa6a208a9</property>
 </producer>
 <producer id="65" out="149" in="0">
  <property name="length">150</property>
  <property name="eof">pause</property>
  <property name="resource">skiplist-i-images/skiplist-i-64.png</property>
  <property name="ttl">25</property>
  <property name="aspect_ratio">1</property>
  <property name="progressive">1</property>
  <property name="seekable">1</property>
  <property name="loop">1</property>
  <property name="meta.media.width">1921</property>
  <property name="meta.media.height">1080</property>
  <property name="mlt_service">pixbuf</property>
  <property name="kdenlive:folderid">-1</property>
  <property name="kdenlive:duration">150</property>
  <property name="kdenlive:file_size">58421</property>
  <property name="kdenlive:file_hash">96a947931db396b10568957632c89a2b</property>
 </producer>
 <producer id="66" out="149" in="0">
  <property name="length">150</property>
  <property name="eof">pause</property>
  <property name="resource">skiplist-i-images/skiplist-i-65.png</property>
  <property name="ttl">25</property>
  <property name="aspect_ratio">1</property>
  <property name="progressive">1</property>
  <property name="seekable">1</property>
  <property name="loop">1</property>
  <property name="meta.media.width">1921</property>
  <property name="meta.media.height">1080</property>
  <property name="mlt_service">pixbuf</property>
  <property name="kdenlive:folderid">-1</property>
  <property name="kdenlive:duration">150</property>
  <property name="kdenlive:file_size">57236</property>
  <property name="kdenlive:file_hash">58300d82d1e7bae0c3d981087d2e94f5</property>
 </producer>
 <producer id="67" out="149" in="0">
  <property name="length">150</property>
  <property name="eof">pause</property>
  <property name="resource">skiplist-i-images/skiplist-i-66.png</property>
  <property name="ttl">25</property>
  <property name="aspect_ratio">1</property>
  <property name="progressive">1</property>
  <property name="seekable">1</property>
  <property name="loop">1</property>
  <property name="meta.media.width">1921</property>
  <property name="meta.media.height">1080</property>
  <property name="mlt_service">pixbuf</property>
  <property name="kdenlive:folderid">-1</property>
  <property name="kdenlive:duration">150</property>
  <property name="kdenlive:file_size">58729</property>
  <property name="kdenlive:file_hash">aeed59994d4d224aa13abf56102991b1</property>
 </producer>
 <producer id="68" out="149" in="0">
  <property name="length">150</property>
  <property name="eof">pause</property>
  <property name="resource">skiplist-i-images/skiplist-i-67.png</property>
  <property name="ttl">25</property>
  <property name="aspect_ratio">1</property>
  <property name="progressive">1</property>
  <property name="seekable">1</property>
  <property name="loop">1</property>
  <property name="meta.media.width">1921</property>
  <property name="meta.media.height">1080</property>
  <property name="mlt_service">pixbuf</property>
  <property name="kdenlive:folderid">-1</property>
  <property name="kdenlive:duration">150</property>
  <property name="kdenlive:file_size">57466</property>
  <property name="kdenlive:file_hash">a11026458d17edb4a180c7ce7ed8da82</property>
  <property name="kdenlive:file_hash">a11026458d17edb4a180c7ce7ed8da82</property>
 </producer>
 <producer id="69" out="149" in="0">
  <property name="length">150</property>
  <property name="eof">pause</property>
  <property name="resource">skiplist-i-images/skiplist-i-68.png</property>
  <property name="ttl">25</property>
  <property name="aspect_ratio">1</property>
  <property name="progressive">1</property>
  <property name="seekable">1</property>
  <property name="loop">1</property>
  <property name="meta.media.width">1921</property>
  <property name="meta.media.height">1080</property>
  <property name="mlt_service">pixbuf</property>
  <property name="kdenlive:folderid">-1</property>
  <property name="kdenlive:duration">150</property>
  <property name="kdenlive:file_size">58600</property>
  <property name="kdenlive:file_hash">728b570852d8a3697ac5b58927fa2b19</property>
 </producer>
 <producer id="70" out="149" in="0">
  <property name="length">150</property>
  <property name="eof">pause</property>
  <property name="resource">skiplist-i-images/skiplist-i-69.png</property>
  <property name="ttl">25</property>
  <property name="aspect_ratio">1</property>
  <property name="progressive">1</property>
  <property name="seekable">1</property>
  <property name="loop">1</property>
  <property name="meta.media.width">1921</property>
  <property name="meta.media.height">1080</property>
  <property name="mlt_service">pixbuf</property>
  <property name="kdenlive:folderid">-1</property>
  <property name="kdenlive:duration">150</property>
  <property name="kdenlive:file_size">58220</property>
  <property name="kdenlive:file_hash">8d9d40fde923f4fa0d1f5efd9000b365</property>
 </producer>
 <producer id="71" out="149" in="0">
  <property name="length">150</property>
  <property name="eof">pause</property>
  <property name="resource">skiplist-i-images/skiplist-i-70.png</property>
  <property name="ttl">25</property>
  <property name="aspect_ratio">1</property>
  <property name="progressive">1</property>
  <property name="seekable">1</property>
  <property name="loop">1</property>
  <property name="meta.media.width">1921</property>
  <property name="meta.media.height">1080</property>
  <property name="mlt_service">pixbuf</property>
  <property name="kdenlive:folderid">-1</property>
  <property name="kdenlive:duration">150</property>
  <property name="kdenlive:file_size">59632</property>
  <property name="kdenlive:file_hash">9c80f10cd6a0fd464fd6e31a4c218a4a</property>
 </producer>
 <producer id="72" out="149" in="0">
  <property name="length">150</property>
  <property name="eof">pause</property>
  <property name="resource">skiplist-i-images/skiplist-i-71.png</property>
  <property name="ttl">25</property>
  <property name="aspect_ratio">1</property>
  <property name="progressive">1</property>
  <property name="seekable">1</property>
  <property name="loop">1</property>
  <property name="meta.media.width">1921</property>
  <property name="meta.media.height">1080</property>
  <property name="mlt_service">pixbuf</property>
  <property name="kdenlive:folderid">-1</property>
  <property name="kdenlive:duration">150</property>
  <property name="kdenlive:file_size">57319</property>
  <property name="kdenlive:file_hash">839b7e789d5b40bfb981348711df00c9</property>
 </producer>
 <producer id="73" out="452" in="0">
  <property name="length">453</property>
  <property name="eof">pause</property>
  <property name="resource">skiplist-i-images/skiplist-i-72.png</property>
  <property name="ttl">25</property>
  <property name="aspect_ratio">1</property>
  <property name="progressive">1</property>
  <property name="seekable">1</property>
  <property name="loop">1</property>
  <property name="meta.media.width">1921</property>
  <property name="meta.media.height">1080</property>
  <property name="mlt_service">pixbuf</property>
  <property name="kdenlive:folderid">-1</property>
  <property name="kdenlive:duration">150</property>
  <property name="kdenlive:file_size">57573</property>
  <property name="kdenlive:file_hash">04f19516c37e218b9d3ef97e26151c39</property>
 </producer>
 <producer id="74" out="673" in="0">
  <property name="length">674</property>
  <property name="eof">pause</property>
  <property name="resource">skiplist-i-images/skiplist-i-73.png</property>
  <property name="ttl">25</property>
  <property name="aspect_ratio">1</property>
  <property name="progressive">1</property>
  <property name="seekable">1</property>
  <property name="loop">1</property>
  <property name="meta.media.width">1921</property>
  <property name="meta.media.height">1080</property>
  <property name="mlt_service">pixbuf</property>
  <property name="kdenlive:folderid">-1</property>
  <property name="kdenlive:duration">150</property>
  <property name="kdenlive:file_size">58235</property>
  <property name="kdenlive:file_hash">b47844cbbfaae6efe684cd68f04803d0</property>
 </producer>
 <producer id="75" out="774" in="0">
  <property name="length">775</property>
  <property name="eof">pause</property>
  <property name="resource">skiplist-i-images/skiplist-i-74.png</property>
  <property name="ttl">25</property>
  <property name="aspect_ratio">1</property>
  <property name="progressive">1</property>
  <property name="seekable">1</property>
  <property name="loop">1</property>
  <property name="meta.media.width">1921</property>
  <property name="meta.media.height">1080</property>
  <property name="mlt_service">pixbuf</property>
  <property name="kdenlive:folderid">-1</property>
  <property name="kdenlive:duration">150</property>
  <property name="kdenlive:file_size">59079</property>
  <property name="kdenlive:file_hash">70b518a04034e57357bc30ace7c6ace7</property>
 </producer>
 <producer id="76" out="209" in="0">
  <property name="length">210</property>
  <property name="eof">pause</property>
  <property name="resource">skiplist-i-images/skiplist-i-75.png</property>
  <property name="ttl">25</property>
  <property name="aspect_ratio">1</property>
  <property name="progressive">1</property>
  <property name="seekable">1</property>
  <property name="loop">1</property>
  <property name="meta.media.width">1921</property>
  <property name="meta.media.height">1080</property>
  <property name="mlt_service">pixbuf</property>
  <property name="kdenlive:folderid">-1</property>
  <property name="kdenlive:duration">150</property>
  <property name="kdenlive:file_size">59686</property>
  <property name="kdenlive:file_hash">239d672eeb9b5d39842583f533101233</property>
 </producer>
 <producer id="77" out="149" in="0">
  <property name="length">150</property>
  <property name="eof">pause</property>
  <property name="resource">skiplist-i-images/skiplist-i-76.png</property>
  <property name="ttl">25</property>
  <property name="aspect_ratio">1</property>
  <property name="progressive">1</property>
  <property name="seekable">1</property>
  <property name="loop">1</property>
  <property name="meta.media.width">1921</property>
  <property name="meta.media.height">1080</property>
  <property name="mlt_service">pixbuf</property>
  <property name="kdenlive:folderid">-1</property>
  <property name="kdenlive:duration">150</property>
  <property name="kdenlive:file_size">60521</property>
  <property name="kdenlive:file_hash">ded169c22ecbe462d3a39ac19edca9d8</property>
 </producer>
 <producer id="78" out="149" in="0">
  <property name="length">150</property>
  <property name="eof">pause</property>
  <property name="resource">skiplist-i-images/skiplist-i-77.png</property>
  <property name="ttl">25</property>
  <property name="aspect_ratio">1</property>
  <property name="progressive">1</property>
  <property name="seekable">1</property>
  <property name="loop">1</property>
  <property name="meta.media.width">1921</property>
  <property name="meta.media.height">1080</property>
  <property name="mlt_service">pixbuf</property>
  <property name="kdenlive:folderid">-1</property>
  <property name="kdenlive:duration">150</property>
  <property name="kdenlive:file_size">61197</property>
  <property name="kdenlive:file_hash">128a99b59ca399e86e24c722d83e7f19</property>
 </producer>
 <producer id="79" out="149" in="0">
  <property name="length">150</property>
  <property name="eof">pause</property>
  <property name="resource">skiplist-i-images/skiplist-i-78.png</property>
  <property name="ttl">25</property>
  <property name="aspect_ratio">1</property>
  <property name="progressive">1</property>
  <property name="seekable">1</property>
  <property name="loop">1</property>
  <property name="meta.media.width">1921</property>
  <property name="meta.media.height">1080</property>
  <property name="mlt_service">pixbuf</property>
  <property name="kdenlive:folderid">-1</property>
  <property name="kdenlive:duration">150</property>
  <property name="kdenlive:file_size">61855</property>
  <property name="kdenlive:file_hash">80547407e8ed0ec65b71bf9cdab4aff8</property>
 </producer>
 <producer id="80" out="149" in="0">
  <property name="length">150</property>
  <property name="eof">pause</property>
  <property name="resource">skiplist-i-images/skiplist-i-79.png</property>
  <property name="ttl">25</property>
  <property name="aspect_ratio">1</property>
  <property name="progressive">1</property>
  <property name="seekable">1</property>
  <property name="loop">1</property>
  <property name="meta.media.width">1921</property>
  <property name="meta.media.height">1080</property>
  <property name="mlt_service">pixbuf</property>
  <property name="kdenlive:folderid">-1</property>
  <property name="kdenlive:duration">150</property>
  <property name="kdenlive:file_size">62647</property>
  <property name="kdenlive:file_hash">a2fb19073821b444a160a1e9918c1771</property>
 </producer>
 <producer id="81" out="149" in="0">
  <property name="length">150</property>
  <property name="eof">pause</property>
  <property name="resource">skiplist-i-images/skiplist-i-80.png</property>
  <property name="ttl">25</property>
  <property name="aspect_ratio">1</property>
  <property name="progressive">1</property>
  <property name="seekable">1</property>
  <property name="loop">1</property>
  <property name="meta.media.width">1921</property>
  <property name="meta.media.height">1080</property>
  <property name="mlt_service">pixbuf</property>
  <property name="kdenlive:folderid">-1</property>
  <property name="kdenlive:duration">150</property>
  <property name="kdenlive:file_size">63429</property>
  <property name="kdenlive:file_hash">4cea0c24a4b86294ef99c2cb84f1a52c</property>
 </producer>
 <producer id="82" out="149" in="0">
  <property name="length">150</property>
  <property name="eof">pause</property>
  <property name="resource">skiplist-i-images/skiplist-i-81.png</property>
  <property name="ttl">25</property>
  <property name="aspect_ratio">1</property>
  <property name="progressive">1</property>
  <property name="seekable">1</property>
  <property name="loop">1</property>
  <property name="meta.media.width">1921</property>
  <property name="meta.media.height">1080</property>
  <property name="mlt_service">pixbuf</property>
  <property name="kdenlive:folderid">-1</property>
  <property name="kdenlive:duration">150</property>
  <property name="kdenlive:file_size">64226</property>
  <property name="kdenlive:file_hash">cd3bb0a0e4b5b7953bb1b15094e6d6f3</property>
 </producer>
 <producer id="83" out="413" in="0">
  <property name="length">414</property>
  <property name="eof">pause</property>
  <property name="resource">skiplist-i-images/skiplist-i-82.png</property>
  <property name="ttl">25</property>
  <property name="aspect_ratio">1</property>
  <property name="progressive">1</property>
  <property name="seekable">1</property>
  <property name="loop">1</property>
  <property name="meta.media.width">1921</property>
  <property name="meta.media.height">1080</property>
  <property name="mlt_service">pixbuf</property>
  <property name="kdenlive:folderid">-1</property>
  <property name="kdenlive:duration">150</property>
  <property name="kdenlive:file_hash">35055835c61128797ec81356c7cc7ecc</property>
  <property name="kdenlive:file_size">65072</property>
 </producer>
 <producer id="84" out="245" in="0">
  <property name="length">246</property>
  <property name="eof">pause</property>
  <property name="resource">skiplist-i-images/skiplist-i-83.png</property>
  <property name="ttl">25</property>
  <property name="aspect_ratio">1</property>
  <property name="progressive">1</property>
  <property name="seekable">1</property>
  <property name="loop">1</property>
  <property name="meta.media.width">1921</property>
  <property name="meta.media.height">1080</property>
  <property name="mlt_service">pixbuf</property>
  <property name="kdenlive:folderid">-1</property>
  <property name="kdenlive:duration">150</property>
  <property name="kdenlive:file_size">100711</property>
  <property name="kdenlive:file_hash">5cc853dd6d7ddddbb49882ecb06b385b</property>
 </producer>
 <producer id="85" out="300" in="0">
  <property name="length">301</property>
  <property name="eof">pause</property>
  <property name="resource">skiplist-i-images/skiplist-i-84.png</property>
  <property name="ttl">25</property>
  <property name="aspect_ratio">1</property>
  <property name="progressive">1</property>
  <property name="seekable">1</property>
  <property name="loop">1</property>
  <property name="meta.media.width">1921</property>
  <property name="meta.media.height">1080</property>
  <property name="mlt_service">pixbuf</property>
  <property name="kdenlive:folderid">-1</property>
  <property name="kdenlive:duration">150</property>
  <property name="kdenlive:file_size">104221</property>
  <property name="kdenlive:file_hash">b91e10a525c2de8bab8d46aaea5c5805</property>
 </producer>
 <producer id="86" out="149" in="0">
  <property name="length">150</property>
  <property name="eof">pause</property>
  <property name="resource">skiplist-i-images/skiplist-i-85.png</property>
  <property name="ttl">25</property>
  <property name="aspect_ratio">1</property>
  <property name="progressive">1</property>
  <property name="seekable">1</property>
  <property name="loop">1</property>
  <property name="meta.media.width">1921</property>
  <property name="meta.media.height">1080</property>
  <property name="mlt_service">pixbuf</property>
  <property name="kdenlive:folderid">-1</property>
  <property name="kdenlive:duration">150</property>
  <property name="kdenlive:file_size">104221</property>
  <property name="kdenlive:file_hash">b91e10a525c2de8bab8d46aaea5c5805</property>
 </producer>
 <producer id="87" out="149" in="0">
  <property name="length">150</property>
  <property name="eof">pause</property>
  <property name="resource">skiplist-i-images/skiplist-i-86.png</property>
  <property name="ttl">25</property>
  <property name="aspect_ratio">1</property>
  <property name="progressive">1</property>
  <property name="seekable">1</property>
  <property name="loop">1</property>
  <property name="meta.media.width">1921</property>
  <property name="meta.media.height">1080</property>
  <property name="mlt_service">pixbuf</property>
  <property name="kdenlive:folderid">-1</property>
  <property name="kdenlive:duration">150</property>
  <property name="kdenlive:file_size">104221</property>
  <property name="kdenlive:file_hash">b91e10a525c2de8bab8d46aaea5c5805</property>
 </producer>
 <producer id="88" out="149" in="0">
  <property name="length">150</property>
  <property name="eof">pause</property>
  <property name="resource">skiplist-i-images/skiplist-i-87.png</property>
  <property name="ttl">25</property>
  <property name="aspect_ratio">1</property>
  <property name="progressive">1</property>
  <property name="seekable">1</property>
  <property name="loop">1</property>
  <property name="meta.media.width">1921</property>
  <property name="meta.media.height">1080</property>
  <property name="mlt_service">pixbuf</property>
  <property name="kdenlive:folderid">-1</property>
  <property name="kdenlive:duration">150</property>
  <property name="kdenlive:file_size">104221</property>
  <property name="kdenlive:file_hash">b91e10a525c2de8bab8d46aaea5c5805</property>
 </producer>
 <producer id="89" out="149" in="0">
  <property name="length">150</property>
  <property name="eof">pause</property>
  <property name="resource">skiplist-i-images/skiplist-i-88.png</property>
  <property name="ttl">25</property>
  <property name="aspect_ratio">1</property>
  <property name="progressive">1</property>
  <property name="seekable">1</property>
  <property name="loop">1</property>
  <property name="meta.media.width">1921</property>
  <property name="meta.media.height">1080</property>
  <property name="mlt_service">pixbuf</property>
  <property name="kdenlive:folderid">-1</property>
  <property name="kdenlive:duration">150</property>
  <property name="kdenlive:file_size">22237</property>
  <property name="kdenlive:file_hash">cc4d4714ffb947468f6ea9a45f6023a8</property>
 </producer>
 <playlist id="main bin">
  <property name="kdenlive:docproperties.audiotargettrack">2</property>
  <property name="kdenlive:docproperties.decimalPoint">.</property>
  <property name="kdenlive:docproperties.dirtypreviewchunks"/>
  <property name="kdenlive:docproperties.disablepreview">0</property>
  <property name="kdenlive:docproperties.documentid">1494362715779</property>
  <property name="kdenlive:docproperties.enableproxy">0</property>
  <property name="kdenlive:docproperties.generateimageproxy">0</property>
  <property name="kdenlive:docproperties.generateproxy">0</property>
  <property name="kdenlive:docproperties.kdenliveversion">17.04.0</property>
  <property name="kdenlive:docproperties.position">10289</property>
  <property name="kdenlive:docproperties.previewchunks"/>
  <property name="kdenlive:docproperties.previewextension"/>
  <property name="kdenlive:docproperties.previewparameters"/>
  <property name="kdenlive:docproperties.profile">atsc_1080p_30</property>
  <property name="kdenlive:docproperties.proxyextension">mpg</property>
  <property name="kdenlive:docproperties.proxyimageminsize">2000</property>
  <property name="kdenlive:docproperties.proxyminsize">1000</property>
  <property name="kdenlive:docproperties.proxyparams">-vf scale=640:-1 -g 5 -qscale 6 -ab 128k -vcodec mpeg2video -acodec mp2</property>
  <property name="kdenlive:docproperties.version">0.95</property>
  <property name="kdenlive:docproperties.verticalzoom">1</property>
  <property name="kdenlive:docproperties.videotargettrack">3</property>
  <property name="kdenlive:docproperties.zonein">0</property>
  <property name="kdenlive:docproperties.zoneout">100</property>
  <property name="kdenlive:docproperties.zoom">5</property>
  <property name="kdenlive:documentnotes"/>
  <property name="kdenlive:clipgroups"/>
  <property name="xml_retain">1</property>
  <entry out="9830" producer="1" in="0"/>
  <entry out="149" producer="2" in="0"/>
  <entry out="149" producer="3" in="0"/>
  <entry out="149" producer="4" in="0"/>
  <entry out="149" producer="5" in="0"/>
  <entry out="149" producer="6" in="0"/>
  <entry out="149" producer="7" in="0"/>
  <entry out="149" producer="8" in="0"/>
  <entry out="149" producer="9" in="0"/>
  <entry out="149" producer="10" in="0"/>
  <entry out="149" producer="11" in="0"/>
  <entry out="149" producer="12" in="0"/>
  <entry out="149" producer="13" in="0"/>
  <entry out="149" producer="14" in="0"/>
  <entry out="149" producer="15" in="0"/>
  <entry out="149" producer="16" in="0"/>
  <entry out="149" producer="17" in="0"/>
  <entry out="149" producer="18" in="0"/>
  <entry out="149" producer="19" in="0"/>
  <entry out="149" producer="20" in="0"/>
  <entry out="149" producer="21" in="0"/>
  <entry out="149" producer="22" in="0"/>
  <entry out="149" producer="23" in="0"/>
  <entry out="149" producer="24" in="0"/>
  <entry out="149" producer="25" in="0"/>
  <entry out="149" producer="26" in="0"/>
  <entry out="149" producer="27" in="0"/>
  <entry out="149" producer="28" in="0"/>
  <entry out="149" producer="29" in="0"/>
  <entry out="149" producer="30" in="0"/>
  <entry out="149" producer="31" in="0"/>
  <entry out="149" producer="32" in="0"/>
  <entry out="149" producer="33" in="0"/>
  <entry out="149" producer="34" in="0"/>
  <entry out="149" producer="35" in="0"/>
  <entry out="149" producer="36" in="0"/>
  <entry out="149" producer="37" in="0"/>
  <entry out="149" producer="38" in="0"/>
  <entry out="149" producer="39" in="0"/>
  <entry out="149" producer="40" in="0"/>
  <entry out="149" producer="41" in="0"/>
  <entry out="149" producer="42" in="0"/>
  <entry out="149" producer="43" in="0"/>
  <entry out="149" producer="44" in="0"/>
  <entry out="149" producer="45" in="0"/>
  <entry out="149" producer="46" in="0"/>
  <entry out="149" producer="47" in="0"/>
  <entry out="149" producer="48" in="0"/>
  <entry out="149" producer="49" in="0"/>
  <entry out="149" producer="50" in="0"/>
  <entry out="149" producer="51" in="0"/>
  <entry out="149" producer="52" in="0"/>
  <entry out="149" producer="53" in="0"/>
  <entry out="149" producer="54" in="0"/>
  <entry out="149" producer="55" in="0"/>
  <entry out="149" producer="56" in="0"/>
  <entry out="149" producer="57" in="0"/>
  <entry out="149" producer="58" in="0"/>
  <entry out="149" producer="59" in="0"/>
  <entry out="149" producer="60" in="0"/>
  <entry out="149" producer="61" in="0"/>
  <entry out="149" producer="62" in="0"/>
  <entry out="149" producer="63" in="0"/>
  <entry out="149" producer="64" in="0"/>
  <entry out="149" producer="65" in="0"/>
  <entry out="149" producer="66" in="0"/>
  <entry out="149" producer="67" in="0"/>
  <entry out="149" producer="68" in="0"/>
  <entry out="149" producer="69" in="0"/>
  <entry out="149" producer="70" in="0"/>
  <entry out="149" producer="71" in="0"/>
  <entry out="149" producer="72" in="0"/>
  <entry out="149" producer="73" in="0"/>
  <entry out="149" producer="74" in="0"/>
  <entry out="149" producer="75" in="0"/>
  <entry out="149" producer="76" in="0"/>
  <entry out="149" producer="77" in="0"/>
  <entry out="149" producer="78" in="0"/>
  <entry out="149" producer="79" in="0"/>
  <entry out="149" producer="80" in="0"/>
  <entry out="149" producer="81" in="0"/>
  <entry out="149" producer="82" in="0"/>
  <entry out="149" producer="83" in="0"/>
  <entry out="149" producer="84" in="0"/>
  <entry out="149" producer="85" in="0"/>
  <entry out="149" producer="86" in="0"/>
  <entry out="149" producer="87" in="0"/>
  <entry out="149" producer="88" in="0"/>
  <entry out="149" producer="89" in="0"/>
 </playlist>
 <producer id="black" out="500" in="0">
  <property name="length">15000</property>
  <property name="eof">pause</property>
  <property name="resource">black</property>
  <property name="aspect_ratio">0</property>
  <property name="mlt_service">colour</property>
  <property name="set.test_audio">0</property>
 </producer>
 <playlist id="black_track">
  <entry out="10289" producer="black" in="0"/>
 </playlist>
 <playlist id="playlist1">
  <property name="kdenlive:track_name">Audio 2</property>
  <property name="kdenlive:audio_track">1</property>
 </playlist>
 <producer id="1_playlist2" title="Anonymous Submission" out="9830" in="0">
  <property name="length">00:05:27:21</property>
  <property name="eof">pause</property>
  <property name="resource">audio/skiplist-i.flac</property>
  <property name="audio_index">0</property>
  <property name="video_index">-1</property>
  <property name="mute_on_pause">1</property>
  <property name="mlt_service">avformat-novalidate</property>
  <property name="seekable">1</property>
  <property name="kdenlive:folderid">-1</property>
  <property name="kdenlive:file_size">10193012</property>
  <property name="kdenlive:file_hash">cd60a9eb561ce028264c2830577bf6b0</property>
  <property name="global_feed">1</property>
  <property name="xml">was here</property>
  <property name="meta.media.nb_streams">1</property>
  <property name="meta.media.0.stream.type">audio</property>
  <property name="meta.media.0.codec.sample_fmt">s16</property>
  <property name="meta.media.0.codec.sample_rate">44100</property>
  <property name="meta.media.0.codec.channels">1</property>
  <property name="meta.media.0.codec.name">flac</property>
  <property name="meta.media.0.codec.long_name">FLAC (Free Lossless Audio Codec)</property>
  <property name="meta.media.0.codec.bit_rate">0</property>
 </producer>
 <playlist id="playlist2">
  <property name="kdenlive:track_name">Audio 1</property>
  <property name="kdenlive:audio_track">1</property>
  <entry out="2039" producer="1_playlist2" in="0"/>
  <blank length="124"/>
  <entry out="2087" producer="1_playlist2" in="2040"/>
  <blank length="31"/>
  <entry out="2139" producer="1_playlist2" in="2088"/>
  <blank length="30"/>
  <entry out="2202" producer="1_playlist2" in="2140"/>
  <blank length="19"/>
  <entry out="2247" producer="1_playlist2" in="2203"/>
  <blank length="21"/>
  <entry out="2294" producer="1_playlist2" in="2248"/>
  <blank length="27"/>
  <entry out="2335" producer="1_playlist2" in="2295"/>
  <blank length="25"/>
  <entry out="2865" producer="1_playlist2" in="2336"/>
  <blank length="458"/>
  <entry out="5138" producer="1_playlist2" in="2986"/>
  <entry out="8578" producer="1_playlist2" in="5139"/>
  <blank length="50"/>
  <entry out="9445" producer="1_playlist2" in="8579"/>
 </playlist>
 <playlist id="playlist3">
  <property name="kdenlive:track_name">Video 1</property>
  <entry out="126" producer="2" in="0"/>
  <entry out="438" producer="3" in="0"/>
  <entry out="162" producer="4" in="4"/>
  <entry out="149" producer="5" in="0"/>
  <entry out="270" producer="6" in="0"/>
  <entry out="187" producer="7" in="0"/>
  <entry out="149" producer="8" in="9"/>
  <entry out="99" producer="9" in="0"/>
  <entry out="135" producer="10" in="0"/>
  <entry out="149" producer="11" in="0"/>
  <entry out="112" producer="12" in="0"/>
  <entry out="29" producer="13" in="0"/>
  <entry out="49" producer="14" in="0"/>
  <entry out="29" producer="15" in="0"/>
  <entry out="29" producer="16" in="0"/>
  <entry out="19" producer="17" in="0"/>
  <entry out="29" producer="18" in="0"/>
  <entry out="48" producer="19" in="0"/>
  <entry out="29" producer="20" in="0"/>
  <entry out="51" producer="21" in="0"/>
  <entry out="29" producer="22" in="0"/>
  <entry out="51" producer="23" in="0"/>
  <entry out="29" producer="24" in="0"/>
  <entry out="44" producer="25" in="0"/>
  <entry out="29" producer="26" in="0"/>
  <entry out="37" producer="27" in="0"/>
  <entry out="29" producer="28" in="0"/>
  <entry out="36" producer="29" in="0"/>
  <entry out="29" producer="30" in="0"/>
  <entry out="41" producer="31" in="0"/>
  <entry out="31" producer="32" in="0"/>
  <entry out="201" producer="33" in="0"/>
  <entry out="121" producer="34" in="0"/>
  <entry out="149" producer="35" in="6"/>
  <entry out="29" producer="36" in="0"/>
  <entry out="29" producer="37" in="0"/>
  <entry out="29" producer="38" in="0"/>
  <entry out="29" producer="39" in="0"/>
  <entry out="29" producer="40" in="0"/>
  <entry out="29" producer="41" in="0"/>
  <entry out="29" producer="42" in="0"/>
  <entry out="29" producer="43" in="0"/>
  <entry out="29" producer="44" in="0"/>
  <entry out="29" producer="45" in="0"/>
  <entry out="29" producer="46" in="0"/>
  <entry out="29" producer="47" in="0"/>
  <entry out="29" producer="48" in="0"/>
  <entry out="44" producer="49" in="0"/>
  <entry out="78" producer="50" in="0"/>
  <entry out="899" producer="51" in="0"/>
  <entry out="185" producer="52" in="0"/>
  <entry out="158" producer="53" in="0"/>
  <entry out="194" producer="54" in="0"/>
  <entry out="238" producer="55" in="0"/>
  <entry out="81" producer="56" in="0"/>
  <entry out="265" producer="57" in="0"/>
  <entry out="29" producer="58" in="0"/>
  <entry out="290" producer="59" in="0"/>
  <entry out="48" producer="60" in="0"/>
  <entry out="188" producer="61" in="0"/>
  <entry out="29" producer="62" in="0"/>
  <entry out="166" producer="63" in="0"/>
  <entry out="29" producer="64" in="0"/>
  <entry out="100" producer="65" in="0"/>
  <entry out="48" producer="66" in="0"/>
  <entry out="31" producer="67" in="0"/>
  <entry out="27" producer="68" in="0"/>
  <entry out="142" producer="69" in="0"/>
  <entry out="28" producer="70" in="0"/>
  <entry out="145" producer="71" in="0"/>
  <entry out="149" producer="72" in="4"/>
  <entry out="451" producer="73" in="0"/>
  <entry out="672" producer="74" in="204"/>
  <entry out="773" producer="75" in="0"/>
  <entry out="174" producer="76" in="0"/>
  <entry out="29" producer="77" in="0"/>
  <entry out="29" producer="78" in="0"/>
  <entry out="29" producer="79" in="0"/>
  <entry out="29" producer="80" in="0"/>
  <entry out="29" producer="81" in="0"/>
  <entry out="29" producer="82" in="0"/>
  <entry out="412" producer="83" in="0"/>
  <entry out="244" producer="84" in="0"/>
  <entry out="299" producer="85" in="0"/>
  <entry out="149" producer="89" in="29"/>
 </playlist>
 <playlist id="playlist4">
  <property name="kdenlive:track_name">Video 2</property>
 </playlist>
 <playlist id="playlist5">
  <property name="kdenlive:track_name">Video 3</property>
 </playlist>
 <tractor id="maintractor" title="Anonymous Submission" global_feed="1" out="10289" in="0">
  <track producer="black_track"/>
  <track producer="playlist1" hide="video"/>
  <track producer="playlist2" hide="video"/>
  <track producer="playlist3"/>
  <track producer="playlist4"/>
  <track producer="playlist5"/>
  <transition id="transition0">
   <property name="a_track">0</property>
   <property name="b_track">1</property>
   <property name="mlt_service">mix</property>
   <property name="always_active">1</property>
   <property name="combine">1</property>
   <property name="internal_added">237</property>
  </transition>
  <transition id="transition1">
   <property name="a_track">0</property>
   <property name="b_track">2</property>
   <property name="mlt_service">mix</property>
   <property name="always_active">1</property>
   <property name="combine">1</property>
   <property name="internal_added">237</property>
  </transition>
  <transition id="transition2">
   <property name="a_track">0</property>
   <property name="b_track">3</property>
   <property name="mlt_service">mix</property>
   <property name="always_active">1</property>
   <property name="combine">1</property>
   <property name="internal_added">237</property>
  </transition>
  <transition id="transition3">
   <property name="a_track">0</property>
   <property name="b_track">3</property>
   <property name="compositing">0</property>
   <property name="distort">0</property>
   <property name="mlt_service">qtblend</property>
   <property name="internal_added">237</property>
  </transition>
  <transition id="transition4">
   <property name="a_track">0</property>
   <property name="b_track">4</property>
   <property name="mlt_service">mix</property>
   <property name="always_active">1</property>
   <property name="combine">1</property>
   <property name="internal_added">237</property>
  </transition>
  <transition id="transition5">
   <property name="a_track">0</property>
   <property name="b_track">4</property>
   <property name="compositing">0</property>
   <property name="distort">0</property>
   <property name="mlt_service">qtblend</property>
   <property name="internal_added">237</property>
  </transition>
  <transition id="transition6">
   <property name="a_track">0</property>
   <property name="b_track">5</property>
   <property name="mlt_service">mix</property>
   <property name="always_active">1</property>
   <property name="combine">1</property>
   <property name="internal_added">237</property>
  </transition>
  <transition id="transition7">
   <property name="a_track">0</property>
   <property name="b_track">5</property>
   <property name="compositing">0</property>
   <property name="distort">0</property>
   <property name="mlt_service">qtblend</property>
   <property name="internal_added">237</property>
  </transition>
 </tractor>
</mlt>
